<?xml version="1.0" encoding="utf-8"?>
<!-- Generator: Adobe Illustrator 16.0.3, SVG Export Plug-In . SVG Version: 6.00 Build 0)  -->
<!DOCTYPE svg PUBLIC "-//W3C//DTD SVG 1.1//EN" "http://www.w3.org/Graphics/SVG/1.1/DTD/svg11.dtd" [
	<!ENTITY st0 "display:inline;fill:#305DA8;stroke:#000000;stroke-miterlimit:10;">
	<!ENTITY st1 "fill:#FFFFFF;">
	<!ENTITY st2 "display:none;">
]>
<svg version="1.1" xmlns="http://www.w3.org/2000/svg" xmlns:xlink="http://www.w3.org/1999/xlink" x="0px" y="0px" width="34px"
	 height="29px" viewBox="0 0 34.3 29.7" style="enable-background:new 0 0 34.3 29.7;" xml:space="preserve">
<g id="Layer_2" style="&st2;">
	<rect x="-35" y="-25.1" style="&st0;" width="193.7" height="274"/>
</g>
<g id="Layer_1">
	<g>
		<rect x="2.9" y="2.9" style="&st1;" width="28.6" height="24"/>
		<g>
			<path d="M32.4,0H1.9C0.9,0,0,0.9,0,1.9v25.9c0,1.1,0.9,1.9,1.9,1.9h30.5c1.1,0,1.9-0.9,1.9-1.9V1.9C34.3,0.9,33.5,0,32.4,0z
				 M31.5,26.8H2.9v-24h28.6V26.8z"/>
		</g>
		<path d="M24.3,6.9H10.3c-0.5,0-0.9,0.4-0.9,0.9v2.1c0,0.5,0.4,0.9,0.9,0.9h4.9v12.1c0,0.5,0.4,0.9,0.9,0.9h2.5
			c0.5,0,0.9-0.4,0.9-0.9V10.7h4.9c0.5,0,0.9-0.4,0.9-0.9V7.7C25.1,7.2,24.8,6.9,24.3,6.9z"/>
	</g>
</g>
</svg>
