<?xml version="1.0" encoding="utf-8"?>
<!-- Generator: Adobe Illustrator 16.0.3, SVG Export Plug-In . SVG Version: 6.00 Build 0)  -->
<!DOCTYPE svg PUBLIC "-//W3C//DTD SVG 1.1//EN" "http://www.w3.org/Graphics/SVG/1.1/DTD/svg11.dtd" [
	<!ENTITY st0 "display:inline;fill:#305DA8;stroke:#000000;stroke-miterlimit:10;">
	<!ENTITY st1 "fill:#FFFFFF;">
	<!ENTITY st2 "display:none;">
]>
<svg version="1.1" xmlns="http://www.w3.org/2000/svg" xmlns:xlink="http://www.w3.org/1999/xlink" x="0px" y="0px" width="34px"
	 height="29px" viewBox="0 0 34.3 29.7" style="enable-background:new 0 0 34.3 29.7;" xml:space="preserve">
<g id="Layer_2" style="&st2;">
	<rect x="-35" y="-225.1" style="&st0;" width="193.7" height="274"/>
</g>
<g id="Layer_1">
	<rect x="2.9" y="2.9" style="&st1;" width="28.6" height="24"/>
	<g>
		<g>
			<path d="M32.4,0H1.9C0.9,0,0,0.9,0,1.9v25.9c0,1.1,0.9,1.9,1.9,1.9h30.5c1.1,0,1.9-0.9,1.9-1.9V1.9C34.3,0.9,33.5,0,32.4,0z
				 M31.5,26.8H2.9v-24h28.6V26.8z"/>
		</g>
		<g>
			<rect x="11.1" y="14.1" width="16.3" height="1.7"/>
			<rect x="11.1" y="20.2" width="16.3" height="1.7"/>
			<rect x="11.1" y="8" width="16.3" height="1.7"/>
		</g>
		<g>
			<path d="M7.8,8.2L7.1,8.6L6.7,8l1.2-0.8h0.8v3.5H7.8V8.2z"/>
			<path d="M6.6,16c0.7-0.6,1.5-1.3,1.5-1.7c0-0.3-0.2-0.4-0.5-0.4c-0.3,0-0.7,0.1-0.9,0.2l0-0.7c0.5-0.2,0.8-0.2,1-0.2
				c0.8,0,1.3,0.3,1.3,1c0,0.7-0.7,1.4-1.1,1.6L7.8,16h1.4v0.7H6.6V16z"/>
			<path d="M6.7,19.3c0.3-0.1,0.6-0.1,1-0.1c0.6,0,1.4,0.2,1.4,1c0,0.4-0.3,0.7-0.6,0.8v0c0.4,0.1,0.7,0.4,0.7,0.8
				c0,0.9-0.8,1.1-1.5,1.1c-0.4,0-0.8,0-1-0.1l0-0.7C6.9,22,7.2,22,7.5,22c0.3,0,0.7-0.1,0.7-0.4c0-0.4-0.4-0.4-0.6-0.4
				c-0.1,0-0.3,0-0.4,0v-0.6c0.2,0,0.3,0,0.4,0c0.2,0,0.6-0.1,0.6-0.4c0-0.3-0.3-0.4-0.6-0.4c-0.3,0-0.6,0-0.8,0.1L6.7,19.3z"/>
		</g>
	</g>
</g>
</svg>
